/* XPM */ 
static char * sbf2_xpm[] = {
"48 48 172 2",
"  	c None",
"! 	c black",
"# 	c #1A1A1A",
"$ 	c #818181",
"% 	c #E0E0E0",
"& 	c #F0F0F0",
"' 	c #2F2F2F",
"( 	c #1F1F1F",
") 	c #1D1D1D",
"* 	c #1E1E1E",
"+ 	c #606060",
", 	c #595959",
"- 	c #4D4D4D",
". 	c #5A5A5A",
"0 	c #2D2D2D",
"1 	c #191919",
"2 	c #181818",
"3 	c #383838",
"4 	c #656565",
"5 	c #5B5B5B",
"6 	c #5C5C5C",
"7 	c #202020",
"8 	c #626262",
"9 	c #636363",
": 	c #717171",
"; 	c #4C4C4C",
"< 	c #161616",
"= 	c #515151",
"> 	c #6C6C6C",
"? 	c #6B6B6B",
"@ 	c #7E7E7E",
"A 	c #292929",
"B 	c #F4F4F4",
"C 	c #171717",
"D 	c #0E0E0E",
"E 	c #070707",
"F 	c #151515",
"G 	c #555555",
"H 	c #404040",
"I 	c #454545",
"J 	c #464646",
"K 	c #090909",
"L 	c #565656",
"M 	c #494949",
"N 	c #4E4E4E",
"O 	c #0D0D0D",
"P 	c #0A0A0A",
"Q 	c #585858",
"R 	c #505050",
"S 	c #5E5E5E",
"T 	c #131313",
"U 	c #0F0F0F",
"V 	c #060606",
"W 	c #575757",
"X 	c #707070",
"Y 	c #222222",
"Z 	c #030303",
"[ 	c #212121",
"] 	c #050505",
"^ 	c #4F4F4F",
"_ 	c #3A3A3A",
"` 	c #4A4A4A",
"a 	c #080808",
"b 	c #0C0C0C",
"c 	c #545454",
"d 	c #0B0B0B",
"e 	c #535353",
"f 	c #313131",
"g 	c #010101",
"h 	c #757575",
"i 	c #040404",
"j 	c #3D3D3D",
"k 	c #434343",
"l 	c #3E3E3E",
"m 	c #3F3F3F",
"n 	c #414141",
"o 	c #474747",
"p 	c #363636",
"q 	c #343434",
"r 	c #484848",
"s 	c #3C3C3C",
"t 	c #727272",
"u 	c #6E6E6E",
"v 	c #393939",
"w 	c #282828",
"x 	c #424242",
"y 	c #232323",
"z 	c #121212",
"{ 	c #444444",
"| 	c #020202",
"} 	c #616161",
"~ 	c #262626",
" !	c #242424",
"!!	c #2E2E2E",
"#!	c #323232",
"$!	c #2B2B2B",
"%!	c #686868",
"&!	c #525252",
"'!	c #676767",
"(!	c #333333",
")!	c #989898",
"*!	c #838383",
"+!	c #303030",
",!	c #101010",
"-!	c #252525",
".!	c #929292",
"0!	c #868686",
"1!	c #5F5F5F",
"2!	c #2A2A2A",
"3!	c white",
"4!	c #F3F3F3",
"5!	c #ECECEC",
"6!	c #959595",
"7!	c #8A8A8A",
"8!	c #808080",
"9!	c #BEBEBE",
":!	c #3B3B3B",
";!	c #111111",
"<!	c #A3A3A3",
"=!	c #2C2C2C",
">!	c #A9A9A9",
"?!	c #EAEAEA",
"@!	c #DEDEDE",
"A!	c #F8F8F8",
"B!	c #141414",
"C!	c #1B1B1B",
"D!	c #1C1C1C",
"E!	c #747474",
"F!	c #353535",
"G!	c #7A7A7A",
"H!	c #A4A4A4",
"I!	c #6A6A6A",
"J!	c #B3B3B3",
"K!	c #FDFDFD",
"L!	c #FCFCFC",
"M!	c #8C8C8C",
"N!	c #E7E7E7",
"O!	c #AEAEAE",
"P!	c #8D8D8D",
"Q!	c #F6F6F6",
"R!	c #272727",
"S!	c #767676",
"T!	c #787878",
"U!	c #373737",
"V!	c #909090",
"W!	c #EFEFEF",
"X!	c #D1D1D1",
"Y!	c #B6B6B6",
"Z!	c #4B4B4B",
"[!	c #C1C1C1",
"]!	c #7D7D7D",
"^!	c #9E9E9E",
"_!	c #696969",
"`!	c #7B7B7B",
"a!	c #D7D7D7",
"b!	c #AFAFAF",
"c!	c #999999",
"d!	c #969696",
"e!	c #9F9F9F",
"f!	c #DBDBDB",
"g!	c #F1F1F1",
"h!	c #7C7C7C",
"i!	c #E3E3E3",
"j!	c #CDCDCD",
"k!	c #939393",
"l!	c #848484",
"m!	c #ACACAC",
"n!	c #F5F5F5",
"o!	c #777777",
"p!	c #646464",
"q!	c #666666",
"r!	c #5D5D5D",
"                                                                                                ",
"                                                                                                ",
"      # # # # # # # # # # # # # # # # # # # # # # # # # # # # # # # # # # # # # # # # # #       ",
"    # $ % & & & & & & & & & & & & & & & & & & & & & & & & & & & & & & & & & & & & & & % $ #     ",
"    # % ' ( ( ( ) * + , - . 0 1 ( ( 2 3 4 5 6 1 7 ( 2 8 9 : ; < 7 7 ( < = > + ? @ A # ' % #     ",
"    # B C D D D D E F G H I J E D D K 2 L M N K D O P Q R S T P U U V 7 ? = W X Y Z U # B #     ",
"    # & [ V U D D U ] A ^ _ ` ) a U b U c J ; d D b O c = G E O D b K . e ^ > f g D D ( & #     ",
"    # & h F i D D D O V j k l m E D D V n o J d O P F = G p ] D D i q . r 9 s g D D D ( & #     ",
"    # & t u ( Z D D U P U o v n # K D V w o x O b V y R N z P D a < . I . { | O U D D * & #     ",
"    # & } 5 > A | O D D E ~  ! ! !!!1 P 2 { m D b ] #!N J a O b E { M ^ M ] d D $!$! ! !v y     ",
"    # & %!R &!'!(!Z d D A ~ )!*!)!v [ ( 7 +!s ,!d E s - !!] D V y ; o r ~  ! !-!A e .!0!$ ( !!  ",
"    # & 9 1!; r 1!j V 2!+!3!3!3!3!(!0!4!5!* #!T K b n { z P P D J x _ * #!6!7!'!F 8!3!3!3!3![ !!",
"    A y ( ( ( ( y v k [ 9!3!3!3!3!:!3!3!3!9![ < E ;!x v K b E ' n :!2 9!3!3!3!3!3!<!3!3!3!3!'! !",
"  =! !>!?!@!@!?!>! !=!* A!3!3!n B!C!3!3!3!3!C!D!V T H -!E a 2 H n [ *!3!3!3!3!3!3!3!y E!3!3!3! !",
"  ) 3!3!3!3!3!3!3!3!) 1 3!3!3!B!;! !3!3!3!3!# ( ] C s T a P F!l 2!y 3!3!3!3!L L 3!3!3!+!3!3!3! !",
"&!$ 3!3!3!3!3!3!3!3!G!z 3!3!3!# P  !3!3!3!3!C![ i 7 p d E ( s y y H!3!3!3!I!) ) I!3!3!3!3!3!3! !",
" !3!3!3!3!!!!!3!3!3!J!U 3!3!3!# E y 3!3!3!3!(  !] A y ] ;!p -!b ) K!3!3!3!T p  !C!.!L!I!3!3!3! !",
" !3!3!3!M!* * M!3!3!N!D 3!3!3!# 7 ( 3!3!3!3!( Y a 2!,!a w w K ) 7 3!3!3!O![ K a C  !# p 3!3!3! !",
" !3!3!3!8! ! !P!3!3!Q!D 3!3!3!# p ( 3!3!3!3!y ( b -!a C R!P a ~ H 3!3!3!r -!O D D O # H 3!3!3! !",
" !3!3!3!*! !$!e .!7!S!T 3!3!3!# * ) 3!3!3!3! !# ,!1 P Y b a < R!T!3!3!3!U!# P E ] b 7 H 3!3!3! !",
" !3!3!3!t  !m #!2!2!0 # 3!3!3!# O # 3!3!3!3!7 y Y R!y U d D!Y  !3!3!3!3!C * F [ v ^ n H 3!3!3! !",
" !3!3!3!3!,!y ;!( +!:!# 3!3!3!# $!C 3!3!3!3!0 G!V!^ A ( =!F 2 # 3!3!3!3!B!f s I o I v H 3!3!3! !",
" !P!3!3!3!W!v ) w ] E # 3!3!3!# =!_ 3!3!3!X!3!3!3!3!3!Y!y # $!f 3!3!3!3!:!U!C  !v ` s H 3!3!3! !",
"Z!c 3!3!3!3!3!Y![ [ [ # 3!3!3!# A m 3!3!3!3!3!3![!3!3!3!3![!3!3!3!3!3!3!3!3!3!7! !O 2 H 3!3!3! !",
"  7 G 3!3!3!3!3!3!*!C!# 3!3!3!# w S 3!3!3!3!3!(!B!:!3!3!3!3!3!3!3!3!3!3!3!3!3!3!) U C!H 3!3!3! !",
"    ~ C!8!3!3!3!3!3!]!z 3!3!3!#  !*!3!3!3!3!~ ~ # m 3!3!3!^!t .!3!3!3!3!_!7!9 $!!!O D!H 3!3!3! !",
"    # `![ 7 a!3!3!3!J!U 3!3!3!# [ b!3!3!3!c!( U ~ v 3!3!3!d!B!F!3!3!3!3!;!~ w ~ O P 1 H 3!3!3! !",
"    # & 8 q B!e!3!3!N!D 3!3!3!# ( f!3!3!3!y  !z  !8!3!3!3!P!( H 3!3!3!g!* N - ; - &!l H 3!3!3! !",
"    # & c ~  !h!3!3!@!D 3!3!3!# C!3!3!3!i!# z C!F 3!3!3!3!H  !H 3!3!3!f!( (!o ^ &!^ l H 3!3!3! !",
"f w ( ( w f  !*!3!3!@!D 3!3!3!# # 3!3!3!3!B!* F I!3!3!3!3!C $!H 3!3!3!@!( V K # H W { H 3!3!3! !",
"w S!Q!Q!t w  !*!3!3!@!D 3!3!3!# * 3!3!3!3!3!j!g!3!3!3!3!9![  !H 3!3!3!W!( D O a ] K -!H 3!3!3! !",
" !3!3!3!k!* ( X 3!3!N!D 3!3!3!# A ` 3!3!3!3!3!3!3!3!3!3!C!2!( H 3!3!3!S! !] b U D O # H 3!3!3! !",
" !3!3!3!3!!!!!3!3!3!J!U 3!3!3!# < ~  !>!@!3!3!3!3!?!E!( !!2!R!x 3!3!3!0! !A K E D D ) H 3!3!3! !",
"c '!3!3!3!3!3!3!3!3!G!z 3!3!3!# _ v -!y ( C!# # ) ( ~ ) ,!+!$!:!3!3!3!l!A M r # i d D!H 3!3!3! !",
"  [ 3!3!3!3!3!3!3!3!) 1 3!3!3!< _ R!E E 7 s < b C v * a K -!(!=!1 !!!!y _ r I Q :!D ( v 3!3!3! !",
"  !!) m!?!@!@!?!>! !=!* n!3!3!f < $!Y P _ s b K z :!' a K z q q ) ) 7 D d { = k f  !;!S!3!3!3! !",
"    2!y ( ( ( ( y -!D 7 % 3!3!3!3!` C!B!J :!P P ;!s s D d K $!F!q K b D P V H 5 A e!3!3!3!3!'! !",
"    # & } y P D D D O 2!!!3!3!3!3!I 1 w ` s E b U m H B!P P B!_ v =!V O D d Z 3 =!.!3!3!3!3![ !!",
"    # & [ V D D D D Z 0 A ~ )!*!)!v ) M ; #!V b D k x ( a D a f 3 n D!E D D b | $!e .!0!$ ( !!  ",
"    # & ) D D D D i -!+ I m  ! ! !!!-!&!- Y E O P n I F!V D K F x 3 k O d D D O $!$! ! !v y     ",
"    # & ( D D D ] D!4 ; = N ] O D i q = ^ T P D a x I I K O O a 3 j x j ] O D D D i 2 o!& #     ",
"    # & ( D D V B!%!G - } < K U O b . N e b b D V n r Z!O b D K C Z!v ; 2!i D D D D V [ & #     ",
"    # B # U K d p!1!N 9 m Z U U E ) 8 R W a O D ] _ ; &!* a D D E l { m &!F a D D D D C B #     ",
"    # % ' ) # %!h + q!_!1 ) 7 7 < R I!'!6 C ( 7 < { S 8 ` C ( 7 1 R!5 - Q r!C!* ( ( ( ' % #     ",
"    # $ % & & & & & & & & & & & & & & & & & & & & & & & & & & & & & & & & & & & & & & % $ #     ",
"      # # # # # # # # # # # # # # # # # # # # # # # # # # # # # # # # # # # # # # # # # #       ",
"                                                                                                ",
"                                                                                                "};